<?xml version="1.0" encoding="utf-8"?>
<!-- Generator: Adobe Illustrator 16.0.0, SVG Export Plug-In . SVG Version: 6.00 Build 0)  -->
<svg version="1.2" baseProfile="tiny" id="Layer_1" xmlns="http://www.w3.org/2000/svg" xmlns:xlink="http://www.w3.org/1999/xlink"
	 x="0px" y="0px" width="16px" height="16px" viewBox="0 0 16 16" xml:space="preserve">
<g>
	<path fill="#F26522" d="M16,14.333C16,15.25,15.403,16,14.67,16H1.379c-0.731,0-1.33-0.75-1.33-1.667V1.667
		C0.05,0.75,0.648,0,1.379,0H14.67C15.403,0,16,0.75,16,1.667V14.333z M1.379,1.333c-0.141,0-0.267,0.156-0.267,0.334v12.666
		c0,0.178,0.125,0.334,0.267,0.334H14.67c0.144,0,0.267-0.156,0.267-0.334V1.667c0-0.178-0.123-0.334-0.267-0.334H1.379z
		 M3.772,6.667c-0.881,0-1.595-0.896-1.595-2c0-1.104,0.714-2,1.595-2c0.88,0,1.594,0.896,1.594,2
		C5.366,5.771,4.652,6.667,3.772,6.667z M13.874,13.334H2.177v-2.001L4.835,8l1.329,1.666l4.253-5.333l3.457,4.334V13.334z"/>
</g>
</svg>
