<?xml version="1.0" encoding="utf-8"?>
<!-- Generator: Adobe Illustrator 16.0.0, SVG Export Plug-In . SVG Version: 6.00 Build 0)  -->
<svg version="1.2" baseProfile="tiny" id="Layer_1" xmlns="http://www.w3.org/2000/svg" xmlns:xlink="http://www.w3.org/1999/xlink"
	 x="0px" y="0px" width="16px" height="16px" viewBox="0 0 16 16" xml:space="preserve">
<g>
	<path fill="#F26522" d="M16,4.286v10.856C16,15.616,15.616,16,15.142,16H6.572c-0.474,0-0.858-0.384-0.858-0.858v-2.57H0.857
		C0.384,12.571,0,12.188,0,11.713V5.714C0,5.241,0.276,4.581,0.607,4.25L4.25,0.607C4.581,0.276,5.241,0,5.714,0h3.714
		c0.474,0,0.858,0.384,0.858,0.857v2.929c0.348-0.206,0.794-0.357,1.142-0.357h3.714C15.616,3.429,16,3.812,16,4.286z M9.143,4.857
		V1.143H5.714v3.714c0,0.473-0.383,0.857-0.857,0.857H1.143v5.714h4.571V9.143c0-0.473,0.277-1.134,0.608-1.464L9.143,4.857z
		 M1.902,4.571h2.669v-2.67L1.902,4.571z M14.856,4.571h-3.429v3.714c0,0.473-0.383,0.857-0.856,0.857H6.857v5.715h7.999V4.571z
		 M7.616,8h2.67V5.331L7.616,8z"/>
</g>
</svg>
