<?xml version="1.0" encoding="utf-8"?>
<!-- Generator: Adobe Illustrator 16.0.3, SVG Export Plug-In . SVG Version: 6.00 Build 0)  -->
<svg version="1.2" baseProfile="tiny" id="Layer_1" xmlns="http://www.w3.org/2000/svg" xmlns:xlink="http://www.w3.org/1999/xlink"
	 x="0px" y="0px" width="320px" height="80px" viewBox="0 0 320 80" xml:space="preserve">
<g>
	<path fill="#999898" d="M119.974,54.278c4.047,0,6.072-1.309,6.072-3.912V23.397h6.474v26.969c0,6.177-3.933,9.264-12.546,9.264
		h-6.215c-8.615,0-12.02-3.124-12.02-9.368V23.397h5.947v26.865c0,2.677,2.023,4.017,6.074,4.017H119.974z"/>
	<path fill="#999898" d="M136.989,59.63V23.397h28.666c8.622,0,12.932,2.604,12.932,7.824v4.42c0,4.364-2.987,6.903-8.956,7.623
		l8.592,16.366h-7.311l-8.489-16.161h-18.587V59.63H136.989z M143.836,28.746v9.372h21.819c4.052,0,6.082-0.825,6.082-2.477v-4.42
		c0-1.649-2.03-2.475-6.082-2.475H143.836z"/>
	<rect x="182.875" y="23.397" fill="#999898" width="30.446" height="5.425"/>
	<rect x="182.875" y="38.801" fill="#999898" width="30.446" height="5.426"/>
	<rect x="182.875" y="54.205" fill="#999898" width="30.446" height="5.426"/>
	<path fill="#999898" d="M132.186,67.835l-1.077,1.015c-0.771-0.75-1.614-1.33-2.539-1.728c-0.915-0.387-1.814-0.587-2.689-0.587
		c-1.088,0-2.126,0.27-3.104,0.801c-0.983,0.537-1.748,1.255-2.288,2.176c-0.533,0.91-0.809,1.876-0.809,2.9
		c0,1.038,0.282,2.031,0.837,2.97c0.563,0.942,1.333,1.679,2.32,2.212c0.989,0.542,2.066,0.81,3.243,0.81
		c1.424,0,2.637-0.405,3.615-1.204c0.991-0.807,1.577-1.852,1.754-3.133h-4.417v-1.333h5.972c-0.009,2.136-0.647,3.842-1.904,5.098
		c-1.258,1.265-2.949,1.896-5.06,1.896c-2.567,0-4.592-0.878-6.085-2.622c-1.156-1.346-1.725-2.906-1.725-4.673
		c0-1.307,0.332-2.534,0.984-3.664c0.662-1.131,1.567-2.011,2.719-2.651c1.151-0.637,2.451-0.958,3.902-0.958
		c1.175,0,2.281,0.217,3.313,0.637C130.188,66.217,131.198,66.897,132.186,67.835"/>
	<path fill="#999898" d="M150.394,65.507h2.757c1.546,0,2.586,0.067,3.131,0.192c0.822,0.189,1.5,0.596,2.011,1.21
		c0.513,0.619,0.773,1.379,0.773,2.29c0,0.751-0.175,1.418-0.532,1.991c-0.357,0.571-0.864,1.005-1.518,1.295
		c-0.664,0.295-1.574,0.446-2.739,0.449l4.984,6.44h-1.707l-4.992-6.44h-0.782v6.44h-1.386L150.394,65.507L150.394,65.507z
		 M151.779,66.864v4.717l2.391,0.014c0.921,0,1.61-0.084,2.054-0.265c0.439-0.169,0.792-0.451,1.039-0.835
		c0.249-0.395,0.373-0.821,0.373-1.299c0-0.467-0.126-0.89-0.381-1.269c-0.25-0.378-0.582-0.653-0.995-0.816
		c-0.402-0.161-1.088-0.247-2.032-0.247H151.779z"/>
	<path fill="#999898" d="M182.368,65.502l6.467,13.873h-1.504l-2.176-4.561h-5.971l-2.162,4.561h-1.544l6.551-13.873H182.368z
		 M182.196,68.454l-2.382,5.017h4.742L182.196,68.454z"/>
	<path fill="#999898" d="M205.646,65.507h2.759c1.588,0,2.65,0.072,3.204,0.21c0.794,0.194,1.44,0.594,1.94,1.2
		c0.502,0.608,0.758,1.365,0.758,2.285c0,0.922-0.243,1.688-0.739,2.29c-0.488,0.601-1.165,1.006-2.026,1.21
		c-0.627,0.149-1.805,0.221-3.522,0.221h-0.988v6.45h-1.387V65.507H205.646z M207.032,66.864v4.704l2.347,0.026
		c0.943,0,1.642-0.083,2.079-0.254c0.446-0.17,0.789-0.451,1.035-0.841c0.255-0.377,0.382-0.816,0.382-1.287
		c0-0.47-0.127-0.89-0.382-1.279c-0.246-0.382-0.579-0.658-0.991-0.823c-0.409-0.158-1.085-0.243-2.021-0.243h-2.448V66.864z"/>
	<polygon fill="#999898" points="231.726,65.507 233.117,65.507 233.117,71.322 240.176,71.322 240.176,65.507 241.556,65.507 
		241.556,79.375 240.176,79.375 240.176,72.68 233.117,72.68 233.117,79.375 231.726,79.375 	"/>
	<rect x="259.404" y="65.502" fill="#999898" width="1.383" height="13.871"/>
	<path fill="#999898" d="M291.551,68.079l-1.093,0.841c-0.603-0.789-1.329-1.379-2.176-1.784c-0.838-0.404-1.772-0.61-2.786-0.61
		c-1.107,0-2.129,0.264-3.066,0.803c-0.945,0.526-1.674,1.242-2.191,2.138c-0.521,0.891-0.78,1.898-0.78,3.017
		c0,1.695,0.582,3.106,1.741,4.233c1.162,1.137,2.62,1.7,4.383,1.7c1.946,0,3.57-0.765,4.876-2.285l1.093,0.825
		c-0.69,0.886-1.55,1.56-2.585,2.043c-1.036,0.485-2.192,0.729-3.47,0.729c-2.42,0-4.338-0.813-5.738-2.425
		c-1.173-1.362-1.763-3.013-1.763-4.943c0-2.025,0.713-3.737,2.135-5.12c1.422-1.388,3.209-2.08,5.349-2.08
		c1.295,0,2.462,0.256,3.506,0.765C290.031,66.444,290.887,67.157,291.551,68.079"/>
	<polygon fill="#999898" points="225.288,41.515 225.288,40.161 225.288,38.118 225.288,35.69 225.288,23.398 218.437,23.398 
		218.437,59.633 225.288,59.633 225.288,46.292 225.288,43.469 	"/>
	<polygon fill="#999898" points="260.787,41.515 260.787,40.161 260.787,38.118 260.787,35.69 260.787,23.398 253.94,23.398 
		253.94,59.633 260.787,59.633 260.787,46.292 260.787,43.469 	"/>
	<polygon fill="#999898" points="291.717,59.63 282.61,59.63 253.696,23.397 262.804,23.397 	"/>
	<polygon fill="#999898" points="233.999,40.285 249.575,23.397 241.977,23.397 228.54,38.117 228.505,38.117 225.894,40.867 
		228.155,43.469 228.181,43.469 229.832,45.398 229.857,45.425 242.028,59.63 250.055,59.63 	"/>
	<rect x="60.793" y="33.14" fill="#999898" width="16.823" height="26.952"/>
	<polygon fill="#9A0C0D" points="97.535,79.728 114.399,79.728 84.83,40 67.963,40 	"/>
	<polygon fill="#ED1F24" points="84.829,40 67.962,40 97.533,0.272 114.399,0.272 	"/>
	<rect x="60.793" y="7.409" fill="#999898" width="16.823" height="32.591"/>
	<polygon fill="#38BADD" points="45.149,60.124 28.283,60.092 60.755,7.409 77.617,7.439 	"/>
</g>
</svg>
