<?xml version="1.0" encoding="utf-8"?>
<!-- Generator: Adobe Illustrator 16.0.0, SVG Export Plug-In . SVG Version: 6.00 Build 0)  -->
<svg version="1.2" baseProfile="tiny" id="Layer_1" xmlns="http://www.w3.org/2000/svg" xmlns:xlink="http://www.w3.org/1999/xlink"
	 x="0px" y="0px" width="600px" height="337.604px" viewBox="0 0 600 337.604" xml:space="preserve">
<rect x="0.001" fill="#E9CA00" width="599.998" height="337.604"/>
<g>
	<path fill="#FFFFFF" d="M180.13,260.687c1.204-0.253,3.104-0.443,5.037-0.443c2.756,0,4.529,0.476,5.859,1.552
		c1.109,0.824,1.774,2.091,1.774,3.77c0,2.06-1.362,3.865-3.611,4.688v0.063c2.027,0.507,4.403,2.186,4.403,5.354
		c0,1.837-0.729,3.231-1.806,4.276c-1.489,1.362-3.896,1.996-7.381,1.996c-1.9,0-3.357-0.127-4.276-0.254V260.687z M182.886,269.43
		h2.503c2.914,0,4.624-1.521,4.624-3.58c0-2.502-1.9-3.484-4.688-3.484c-1.268,0-1.996,0.096-2.439,0.19V269.43z M182.886,279.661
		c0.538,0.095,1.33,0.127,2.312,0.127c2.851,0,5.48-1.046,5.48-4.149c0-2.915-2.503-4.118-5.512-4.118h-2.281V279.661z"/>
	<path fill="#FFFFFF" d="M210.037,277.57c0,1.584,0.031,2.978,0.127,4.182h-2.472l-0.158-2.503h-0.063
		c-0.729,1.235-2.344,2.852-5.068,2.852c-2.407,0-5.29-1.331-5.29-6.716v-8.965h2.788v8.49c0,2.914,0.887,4.878,3.421,4.878
		c1.869,0,3.168-1.299,3.675-2.534c0.158-0.412,0.253-0.919,0.253-1.426v-9.408h2.788V277.57z"/>
	<path fill="#FFFFFF" d="M214.284,278.901c0.824,0.538,2.281,1.108,3.675,1.108c2.027,0,2.978-1.014,2.978-2.281
		c0-1.33-0.792-2.059-2.851-2.818c-2.756-0.982-4.055-2.503-4.055-4.34c0-2.472,1.995-4.499,5.29-4.499
		c1.552,0,2.914,0.444,3.77,0.951l-0.697,2.027c-0.602-0.381-1.71-0.888-3.136-0.888c-1.647,0-2.565,0.95-2.565,2.091
		c0,1.268,0.918,1.838,2.914,2.598c2.661,1.014,4.022,2.344,4.022,4.625c0,2.692-2.09,4.593-5.733,4.593
		c-1.679,0-3.23-0.411-4.308-1.045L214.284,278.901z"/>
	<path fill="#FFFFFF" d="M230.315,262.112c0.031,0.95-0.665,1.71-1.773,1.71c-0.982,0-1.68-0.76-1.68-1.71
		c0-0.982,0.729-1.742,1.742-1.742C229.65,260.37,230.315,261.13,230.315,262.112z M227.21,281.752V266.42h2.788v15.332H227.21z"/>
	<path fill="#FFFFFF" d="M234.625,270.57c0-1.584-0.032-2.883-0.127-4.15h2.471l0.158,2.534h0.063
		c0.761-1.457,2.534-2.883,5.068-2.883c2.122,0,5.417,1.268,5.417,6.526v9.154h-2.788v-8.838c0-2.471-0.918-4.53-3.548-4.53
		c-1.837,0-3.263,1.299-3.737,2.852c-0.127,0.349-0.19,0.823-0.19,1.299v9.218h-2.787V270.57z"/>
	<path fill="#FFFFFF" d="M253.76,274.593c0.063,3.77,2.471,5.322,5.259,5.322c1.995,0,3.199-0.349,4.244-0.792l0.476,1.995
		c-0.982,0.443-2.661,0.95-5.101,0.95c-4.72,0-7.539-3.104-7.539-7.729s2.725-8.269,7.191-8.269c5.005,0,6.335,4.403,6.335,7.223
		c0,0.57-0.063,1.014-0.095,1.299H253.76z M261.933,272.598c0.031-1.774-0.729-4.53-3.864-4.53c-2.819,0-4.055,2.598-4.276,4.53
		H261.933z"/>
	<path fill="#FFFFFF" d="M267.701,278.901c0.823,0.538,2.28,1.108,3.675,1.108c2.027,0,2.978-1.014,2.978-2.281
		c0-1.33-0.792-2.059-2.852-2.818c-2.756-0.982-4.055-2.503-4.055-4.34c0-2.472,1.996-4.499,5.29-4.499
		c1.553,0,2.915,0.444,3.771,0.951l-0.697,2.027c-0.602-0.381-1.711-0.888-3.136-0.888c-1.647,0-2.566,0.95-2.566,2.091
		c0,1.268,0.919,1.838,2.914,2.598c2.661,1.014,4.023,2.344,4.023,4.625c0,2.692-2.091,4.593-5.733,4.593
		c-1.679,0-3.231-0.411-4.309-1.045L267.701,278.901z"/>
	<path fill="#FFFFFF" d="M280.247,278.901c0.824,0.538,2.281,1.108,3.675,1.108c2.027,0,2.978-1.014,2.978-2.281
		c0-1.33-0.792-2.059-2.851-2.818c-2.756-0.982-4.055-2.503-4.055-4.34c0-2.472,1.995-4.499,5.29-4.499
		c1.552,0,2.914,0.444,3.77,0.951l-0.697,2.027c-0.602-0.381-1.71-0.888-3.136-0.888c-1.647,0-2.565,0.95-2.565,2.091
		c0,1.268,0.918,1.838,2.914,2.598c2.661,1.014,4.022,2.344,4.022,4.625c0,2.692-2.09,4.593-5.733,4.593
		c-1.679,0-3.23-0.411-4.308-1.045L280.247,278.901z"/>
	<path fill="#FFFFFF" d="M299.605,278.395c1.235,0.76,3.042,1.394,4.942,1.394c2.818,0,4.467-1.489,4.467-3.643
		c0-1.996-1.141-3.137-4.023-4.245c-3.484-1.235-5.639-3.041-5.639-6.051c0-3.326,2.756-5.797,6.907-5.797
		c2.186,0,3.77,0.507,4.719,1.046l-0.76,2.249c-0.697-0.38-2.123-1.014-4.055-1.014c-2.914,0-4.023,1.742-4.023,3.199
		c0,1.996,1.299,2.978,4.244,4.118c3.611,1.394,5.449,3.136,5.449,6.272c0,3.294-2.439,6.145-7.477,6.145
		c-2.059,0-4.307-0.602-5.448-1.361L299.605,278.395z"/>
	<path fill="#FFFFFF" d="M329.574,273.959c0,5.671-3.928,8.142-7.635,8.142c-4.15,0-7.35-3.041-7.35-7.888
		c0-5.132,3.357-8.142,7.604-8.142C326.596,266.071,329.574,269.271,329.574,273.959z M317.41,274.118
		c0,3.357,1.932,5.892,4.656,5.892c2.66,0,4.656-2.503,4.656-5.955c0-2.598-1.299-5.893-4.594-5.893
		C318.836,268.162,317.41,271.203,317.41,274.118z"/>
	<path fill="#FFFFFF" d="M333.094,259.261h2.787v22.491h-2.787V259.261z"/>
	<path fill="#FFFFFF" d="M353.398,277.57c0,1.584,0.033,2.978,0.127,4.182h-2.471l-0.158-2.503h-0.062
		c-0.729,1.235-2.346,2.852-5.068,2.852c-2.408,0-5.291-1.331-5.291-6.716v-8.965h2.787v8.49c0,2.914,0.887,4.878,3.422,4.878
		c1.869,0,3.168-1.299,3.674-2.534c0.158-0.412,0.254-0.919,0.254-1.426v-9.408h2.787V277.57z"/>
	<path fill="#FFFFFF" d="M361.385,262.017v4.403h3.99v2.123h-3.99v8.268c0,1.9,0.539,2.978,2.09,2.978
		c0.729,0,1.268-0.095,1.615-0.19l0.127,2.091c-0.537,0.222-1.393,0.38-2.471,0.38c-1.299,0-2.344-0.411-3.008-1.172
		c-0.793-0.823-1.078-2.186-1.078-3.991v-8.362h-2.375v-2.123h2.375v-3.674L361.385,262.017z"/>
	<path fill="#FFFFFF" d="M371.619,262.112c0.031,0.95-0.666,1.71-1.775,1.71c-0.98,0-1.678-0.76-1.678-1.71
		c0-0.982,0.729-1.742,1.742-1.742C370.953,260.37,371.619,261.13,371.619,262.112z M368.514,281.752V266.42h2.787v15.332H368.514z"
		/>
	<path fill="#FFFFFF" d="M389.803,273.959c0,5.671-3.93,8.142-7.635,8.142c-4.15,0-7.35-3.041-7.35-7.888
		c0-5.132,3.357-8.142,7.604-8.142C386.824,266.071,389.803,269.271,389.803,273.959z M377.639,274.118
		c0,3.357,1.932,5.892,4.656,5.892c2.66,0,4.656-2.503,4.656-5.955c0-2.598-1.299-5.893-4.594-5.893
		S377.639,271.203,377.639,274.118z"/>
	<path fill="#FFFFFF" d="M393.322,270.57c0-1.584-0.033-2.883-0.127-4.15h2.471l0.158,2.534h0.062
		c0.762-1.457,2.535-2.883,5.068-2.883c2.123,0,5.418,1.268,5.418,6.526v9.154h-2.787v-8.838c0-2.471-0.92-4.53-3.549-4.53
		c-1.838,0-3.262,1.299-3.738,2.852c-0.127,0.349-0.189,0.823-0.189,1.299v9.218h-2.787V270.57z"/>
	<path fill="#FFFFFF" d="M410.525,278.901c0.822,0.538,2.279,1.108,3.674,1.108c2.027,0,2.979-1.014,2.979-2.281
		c0-1.33-0.793-2.059-2.852-2.818c-2.756-0.982-4.055-2.503-4.055-4.34c0-2.472,1.996-4.499,5.289-4.499
		c1.553,0,2.914,0.444,3.77,0.951l-0.695,2.027c-0.604-0.381-1.711-0.888-3.137-0.888c-1.646,0-2.566,0.95-2.566,2.091
		c0,1.268,0.92,1.838,2.914,2.598c2.662,1.014,4.023,2.344,4.023,4.625c0,2.692-2.09,4.593-5.732,4.593
		c-1.68,0-3.232-0.411-4.309-1.045L410.525,278.901z"/>
</g>
<g>
	<path fill="#FFFFFF" d="M382.886,152.614h-153.18V119.79c0-7.522,6.154-13.677,13.677-13.677h30.089V92.437
		c0-4.53,3.676-8.206,8.206-8.206h49.236c4.53,0,8.206,3.676,8.206,8.206v13.677h30.089c7.522,0,13.677,6.154,13.677,13.677V152.614
		z M382.886,201.851c0,7.522-6.154,13.677-13.677,13.677H243.383c-7.522,0-13.677-6.154-13.677-13.677v-41.03h57.442v13.677
		c0,2.992,2.479,5.471,5.471,5.471h27.354c2.992,0,5.471-2.479,5.471-5.471V160.82h57.442V201.851z M328.179,106.113V95.172h-43.766
		v10.941H328.179z M317.237,171.762h-21.883V160.82h21.883V171.762z"/>
</g>
</svg>
