<?xml version="1.0" encoding="utf-8"?>
<!-- Generator: Adobe Illustrator 16.0.0, SVG Export Plug-In . SVG Version: 6.00 Build 0)  -->
<svg version="1.2" baseProfile="tiny" id="Layer_1" xmlns="http://www.w3.org/2000/svg" xmlns:xlink="http://www.w3.org/1999/xlink"
	 x="0px" y="0px" width="600px" height="337.604px" viewBox="0 0 600 337.604" xml:space="preserve">
<rect x="0.001" fill="#96455C" width="599.998" height="337.604"/>
<g>
	<path fill="#FFFFFF" d="M378.17,68.104l-22.357,134.139c-0.262,1.658-1.312,3.058-2.793,3.929c-0.789,0.438-1.748,0.7-2.709,0.7
		c-0.699,0-1.396-0.176-2.095-0.436l-39.562-16.158l-21.135,25.764c-1.049,1.309-2.619,2.008-4.278,2.008
		c-0.611,0-1.312-0.087-1.921-0.35c-2.184-0.787-3.669-2.883-3.669-5.242v-30.477l75.455-92.483l-93.356,80.78l-34.495-14.146
		c-2.009-0.786-3.318-2.619-3.493-4.803c-0.086-2.096,0.961-4.104,2.796-5.152L369.873,62.34c0.875-0.524,1.835-0.787,2.795-0.787
		c1.136,0,2.271,0.349,3.141,0.96C377.645,63.824,378.52,65.919,378.17,68.104z"/>
</g>
<g>
	<path fill="#FFFFFF" d="M198.17,281.403c-1.014,0.507-3.041,1.014-5.639,1.014c-6.019,0-10.549-3.801-10.549-10.802
		c0-6.685,4.53-11.214,11.15-11.214c2.661,0,4.34,0.57,5.068,0.949l-0.665,2.25c-1.046-0.506-2.534-0.888-4.309-0.888
		c-5.005,0-8.331,3.199-8.331,8.808c0,5.227,3.01,8.584,8.205,8.584c1.679,0,3.389-0.349,4.498-0.887L198.17,281.403z"/>
	<path fill="#FFFFFF" d="M201.436,271.552c0-1.806-0.032-3.357-0.127-4.783h2.439l0.095,3.01h0.127
		c0.696-2.059,2.376-3.357,4.244-3.357c0.317,0,0.539,0.032,0.792,0.096v2.629c-0.285-0.062-0.57-0.095-0.95-0.095
		c-1.964,0-3.357,1.488-3.737,3.579c-0.063,0.381-0.127,0.824-0.127,1.299v8.174h-2.756V271.552z"/>
	<path fill="#FFFFFF" d="M213.031,274.94c0.062,3.771,2.471,5.322,5.258,5.322c1.996,0,3.199-0.349,4.245-0.791l0.475,1.994
		c-0.981,0.443-2.66,0.95-5.1,0.95c-4.72,0-7.539-3.104-7.539-7.729s2.725-8.269,7.19-8.269c5.005,0,6.336,4.403,6.336,7.224
		c0,0.569-0.063,1.014-0.096,1.299H213.031L213.031,274.94z M221.204,272.946c0.031-1.774-0.729-4.53-3.865-4.53
		c-2.819,0-4.055,2.599-4.276,4.53H221.204z"/>
	<path fill="#FFFFFF" d="M235.841,282.101l-0.222-1.933h-0.095c-0.855,1.204-2.502,2.281-4.688,2.281
		c-3.104,0-4.688-2.187-4.688-4.403c0-3.706,3.294-5.732,9.218-5.701v-0.316c0-1.269-0.349-3.549-3.484-3.549
		c-1.426,0-2.914,0.443-3.991,1.142l-0.634-1.838c1.267-0.823,3.104-1.362,5.036-1.362c4.688,0,5.829,3.2,5.829,6.271v5.733
		c0,1.331,0.063,2.63,0.253,3.675H235.841L235.841,282.101z M235.43,274.276c-3.041-0.063-6.494,0.475-6.494,3.453
		c0,1.806,1.204,2.66,2.629,2.66c1.996,0,3.263-1.268,3.707-2.565c0.095-0.285,0.158-0.603,0.158-0.888V274.276z"/>
	<path fill="#FFFFFF" d="M245.854,262.365v4.403h3.991v2.123h-3.991v8.268c0,1.9,0.538,2.979,2.09,2.979
		c0.729,0,1.268-0.096,1.616-0.191l0.127,2.092c-0.539,0.222-1.395,0.38-2.472,0.38c-1.299,0-2.344-0.411-3.009-1.172
		c-0.792-0.823-1.077-2.187-1.077-3.991v-8.361h-2.376v-2.123h2.376v-3.674L245.854,262.365z"/>
	<path fill="#FFFFFF" d="M256.088,262.461c0.031,0.95-0.666,1.71-1.774,1.71c-0.981,0-1.679-0.76-1.679-1.71
		c0-0.981,0.729-1.742,1.742-1.742C255.422,260.719,256.088,261.479,256.088,262.461z M252.983,282.101v-15.332h2.787v15.332
		H252.983z"/>
	<path fill="#FFFFFF" d="M261.474,266.769l3.01,8.616c0.507,1.394,0.918,2.661,1.235,3.929h0.095
		c0.349-1.268,0.792-2.535,1.299-3.929l2.978-8.616h2.914l-6.019,15.332h-2.661l-5.828-15.332H261.474z"/>
	<path fill="#FFFFFF" d="M276.871,274.94c0.063,3.771,2.471,5.322,5.259,5.322c1.995,0,3.199-0.349,4.244-0.791l0.476,1.994
		c-0.982,0.443-2.661,0.95-5.1,0.95c-4.721,0-7.54-3.104-7.54-7.729s2.725-8.269,7.191-8.269c5.005,0,6.335,4.403,6.335,7.224
		c0,0.569-0.063,1.014-0.095,1.299H276.871L276.871,274.94z M285.044,272.946c0.031-1.774-0.729-4.53-3.864-4.53
		c-2.819,0-4.055,2.599-4.276,4.53H285.044z"/>
	<path fill="#FFFFFF" d="M297.623,278.743c1.235,0.76,3.041,1.395,4.941,1.395c2.818,0,4.467-1.49,4.467-3.644
		c0-1.996-1.141-3.138-4.022-4.245c-3.484-1.234-5.639-3.041-5.639-6.051c0-3.326,2.756-5.797,6.905-5.797
		c2.186,0,3.77,0.507,4.72,1.046l-0.761,2.249c-0.696-0.381-2.121-1.014-4.055-1.014c-2.914,0-4.022,1.741-4.022,3.198
		c0,1.996,1.299,2.978,4.245,4.118c3.61,1.395,5.447,3.136,5.447,6.271c0,3.295-2.438,6.146-7.476,6.146
		c-2.06,0-4.309-0.603-5.448-1.36L297.623,278.743z"/>
	<path fill="#FFFFFF" d="M327.593,274.308c0,5.672-3.928,8.143-7.635,8.143c-4.149,0-7.349-3.041-7.349-7.889
		c0-5.131,3.356-8.142,7.603-8.142C324.615,266.42,327.593,269.62,327.593,274.308z M315.429,274.467
		c0,3.357,1.933,5.892,4.656,5.892c2.661,0,4.657-2.502,4.657-5.955c0-2.598-1.299-5.893-4.594-5.893
		S315.429,271.552,315.429,274.467z"/>
	<path fill="#FFFFFF" d="M331.111,259.608h2.787v22.492h-2.787V259.608z"/>
	<path fill="#FFFFFF" d="M351.418,277.919c0,1.584,0.032,2.979,0.127,4.182h-2.471l-0.158-2.502h-0.062
		c-0.729,1.234-2.346,2.852-5.068,2.852c-2.408,0-5.29-1.331-5.29-6.717v-8.965h2.787v8.49c0,2.914,0.887,4.879,3.421,4.879
		c1.869,0,3.168-1.3,3.675-2.535c0.158-0.412,0.254-0.918,0.254-1.426v-9.408h2.787L351.418,277.919L351.418,277.919z"/>
	<path fill="#FFFFFF" d="M359.402,262.365v4.403h3.992v2.123h-3.992v8.268c0,1.9,0.539,2.979,2.092,2.979
		c0.729,0,1.268-0.096,1.615-0.191l0.127,2.092c-0.538,0.222-1.395,0.38-2.471,0.38c-1.3,0-2.345-0.411-3.01-1.172
		c-0.792-0.823-1.076-2.187-1.076-3.991v-8.361h-2.377v-2.123h2.377v-3.674L359.402,262.365z"/>
	<path fill="#FFFFFF" d="M369.639,262.461c0.03,0.95-0.666,1.71-1.774,1.71c-0.981,0-1.679-0.76-1.679-1.71
		c0-0.981,0.729-1.742,1.741-1.742C368.973,260.719,369.639,261.479,369.639,262.461z M366.533,282.101v-15.332h2.787v15.332
		H366.533z"/>
	<path fill="#FFFFFF" d="M387.821,274.308c0,5.672-3.929,8.143-7.636,8.143c-4.148,0-7.349-3.041-7.349-7.889
		c0-5.131,3.356-8.142,7.603-8.142C384.843,266.42,387.821,269.62,387.821,274.308z M375.657,274.467
		c0,3.357,1.932,5.892,4.655,5.892c2.662,0,4.656-2.502,4.656-5.955c0-2.598-1.299-5.893-4.593-5.893
		S375.657,271.552,375.657,274.467z"/>
	<path fill="#FFFFFF" d="M391.34,270.919c0-1.584-0.031-2.883-0.127-4.15h2.471l0.159,2.535h0.062
		c0.761-1.457,2.534-2.884,5.067-2.884c2.123,0,5.418,1.269,5.418,6.526v9.154h-2.787v-8.838c0-2.472-0.92-4.531-3.549-4.531
		c-1.838,0-3.263,1.3-3.738,2.853c-0.127,0.349-0.189,0.823-0.189,1.299v9.218h-2.787V270.919z"/>
	<path fill="#FFFFFF" d="M408.544,279.25c0.823,0.538,2.28,1.108,3.674,1.108c2.027,0,2.979-1.015,2.979-2.281
		c0-1.33-0.792-2.059-2.852-2.818c-2.757-0.982-4.056-2.503-4.056-4.34c0-2.472,1.996-4.499,5.29-4.499
		c1.553,0,2.915,0.444,3.77,0.951l-0.695,2.026c-0.604-0.381-1.711-0.888-3.137-0.888c-1.646,0-2.565,0.95-2.565,2.091
		c0,1.269,0.919,1.838,2.914,2.599c2.661,1.014,4.022,2.344,4.022,4.625c0,2.692-2.091,4.593-5.732,4.593
		c-1.68,0-3.231-0.411-4.309-1.045L408.544,279.25z"/>
</g>
</svg>
