<?xml version="1.0" encoding="utf-8"?>
<!-- Generator: Adobe Illustrator 16.0.0, SVG Export Plug-In . SVG Version: 6.00 Build 0)  -->
<svg version="1.2" baseProfile="tiny" id="Layer_1" xmlns="http://www.w3.org/2000/svg" xmlns:xlink="http://www.w3.org/1999/xlink"
	 x="0px" y="0px" width="600px" height="337.604px" viewBox="0 0 600 337.604" xml:space="preserve">
<rect x="0.001" fill="#00A2D4" width="599.998" height="337.604"/>
<g>
	<path fill="#FFFFFF" d="M180.906,262.205c1.33-0.222,3.072-0.412,5.29-0.412c2.725,0,4.72,0.634,5.987,1.773
		c1.172,1.014,1.869,2.566,1.869,4.467c0,1.933-0.57,3.453-1.647,4.562c-1.457,1.553-3.833,2.344-6.525,2.344
		c-0.824,0-1.584-0.031-2.218-0.189v8.553h-2.756V262.205z M183.662,272.5c0.602,0.158,1.362,0.222,2.281,0.222
		c3.325,0,5.353-1.615,5.353-4.562c0-2.819-1.995-4.182-5.036-4.182c-1.204,0-2.122,0.095-2.598,0.222V272.5z"/>
	<path fill="#FFFFFF" d="M197.16,272.753c0-1.806-0.032-3.357-0.127-4.783h2.439l0.095,3.01h0.127
		c0.696-2.06,2.375-3.358,4.244-3.358c0.317,0,0.539,0.032,0.792,0.096v2.629c-0.285-0.063-0.57-0.095-0.95-0.095
		c-1.964,0-3.357,1.488-3.738,3.579c-0.062,0.38-0.126,0.824-0.126,1.299v8.173h-2.756V272.753z"/>
	<path fill="#FFFFFF" d="M221.078,275.509c0,5.671-3.928,8.142-7.635,8.142c-4.149,0-7.349-3.041-7.349-7.888
		c0-5.132,3.357-8.142,7.603-8.142C218.101,267.621,221.078,270.821,221.078,275.509z M208.914,275.668
		c0,3.357,1.932,5.892,4.656,5.892c2.661,0,4.656-2.503,4.656-5.955c0-2.598-1.299-5.893-4.593-5.893
		C210.339,269.712,208.914,272.753,208.914,275.668z"/>
	<path fill="#FFFFFF" d="M224.471,283.302c0.063-1.045,0.127-2.598,0.127-3.96v-18.531h2.756v9.63h0.063
		c0.981-1.71,2.756-2.819,5.227-2.819c3.801,0,6.493,3.168,6.462,7.825c0,5.479-3.453,8.204-6.874,8.204
		c-2.218,0-3.991-0.855-5.132-2.883h-0.095l-0.127,2.534H224.471z M227.354,277.156c0,0.349,0.063,0.697,0.126,1.014
		c0.539,1.933,2.154,3.263,4.182,3.263c2.914,0,4.657-2.376,4.657-5.892c0-3.073-1.584-5.702-4.562-5.702
		c-1.901,0-3.675,1.299-4.245,3.421c-0.063,0.317-0.158,0.697-0.158,1.141V277.156z"/>
	<path fill="#FFFFFF" d="M242.624,260.811h2.788v22.491h-2.788V260.811z"/>
	<path fill="#FFFFFF" d="M251.653,276.143c0.063,3.77,2.471,5.322,5.259,5.322c1.995,0,3.199-0.349,4.244-0.792l0.476,1.995
		c-0.982,0.443-2.661,0.95-5.101,0.95c-4.72,0-7.539-3.104-7.539-7.729s2.725-8.269,7.191-8.269c5.005,0,6.335,4.403,6.335,7.223
		c0,0.57-0.063,1.014-0.095,1.299H251.653z M259.826,274.147c0.031-1.774-0.729-4.53-3.864-4.53c-2.819,0-4.055,2.598-4.276,4.53
		H259.826z"/>
	<path fill="#FFFFFF" d="M265.974,272.12c0-1.584-0.031-2.883-0.127-4.15h2.439l0.127,2.471h0.095
		c0.855-1.457,2.281-2.819,4.815-2.819c2.091,0,3.674,1.268,4.34,3.073h0.062c0.476-0.855,1.077-1.521,1.711-1.996
		c0.919-0.696,1.933-1.077,3.39-1.077c2.027,0,5.036,1.331,5.036,6.652v9.028h-2.724v-8.68c0-2.946-1.077-4.72-3.326-4.72
		c-1.584,0-2.819,1.172-3.295,2.534c-0.126,0.38-0.222,0.887-0.222,1.394v9.472h-2.724v-9.187c0-2.439-1.077-4.213-3.199-4.213
		c-1.743,0-3.01,1.394-3.453,2.787c-0.158,0.412-0.222,0.888-0.222,1.362v9.25h-2.725V272.12z"/>
	<path fill="#FFFFFF" d="M298.829,279.944c1.235,0.76,3.041,1.394,4.941,1.394c2.819,0,4.467-1.489,4.467-3.643
		c0-1.996-1.141-3.137-4.023-4.245c-3.484-1.235-5.639-3.041-5.639-6.051c0-3.326,2.756-5.797,6.906-5.797
		c2.186,0,3.77,0.507,4.72,1.046l-0.761,2.249c-0.696-0.38-2.122-1.014-4.055-1.014c-2.914,0-4.022,1.742-4.022,3.199
		c0,1.996,1.299,2.978,4.244,4.118c3.611,1.394,5.449,3.136,5.449,6.272c0,3.294-2.439,6.145-7.477,6.145
		c-2.059,0-4.308-0.602-5.448-1.361L298.829,279.944z"/>
	<path fill="#FFFFFF" d="M328.798,275.509c0,5.671-3.928,8.142-7.634,8.142c-4.149,0-7.35-3.041-7.35-7.888
		c0-5.132,3.358-8.142,7.603-8.142C325.82,267.621,328.798,270.821,328.798,275.509z M316.634,275.668
		c0,3.357,1.933,5.892,4.656,5.892c2.661,0,4.657-2.503,4.657-5.955c0-2.598-1.299-5.893-4.594-5.893
		C318.06,269.712,316.634,272.753,316.634,275.668z"/>
	<path fill="#FFFFFF" d="M332.317,260.811h2.787v22.491h-2.787V260.811z"/>
	<path fill="#FFFFFF" d="M352.623,279.12c0,1.584,0.032,2.978,0.127,4.182h-2.471l-0.158-2.503h-0.063
		c-0.729,1.235-2.345,2.852-5.068,2.852c-2.408,0-5.29-1.331-5.29-6.716v-8.965h2.787v8.49c0,2.914,0.887,4.878,3.421,4.878
		c1.869,0,3.168-1.299,3.675-2.534c0.158-0.412,0.254-0.919,0.254-1.426v-9.408h2.787V279.12z"/>
	<path fill="#FFFFFF" d="M360.608,263.566v4.403h3.991v2.123h-3.991v8.268c0,1.9,0.539,2.978,2.091,2.978
		c0.729,0,1.268-0.095,1.616-0.19l0.126,2.091c-0.538,0.222-1.394,0.38-2.471,0.38c-1.299,0-2.344-0.411-3.009-1.172
		c-0.792-0.823-1.077-2.186-1.077-3.991v-8.362h-2.376v-2.123h2.376v-3.674L360.608,263.566z"/>
	<path fill="#FFFFFF" d="M370.843,263.662c0.031,0.95-0.665,1.71-1.774,1.71c-0.981,0-1.679-0.76-1.679-1.71
		c0-0.982,0.729-1.742,1.742-1.742C370.178,261.92,370.843,262.68,370.843,263.662z M367.738,283.302V267.97h2.787v15.332H367.738z"
		/>
	<path fill="#FFFFFF" d="M389.026,275.509c0,5.671-3.929,8.142-7.635,8.142c-4.149,0-7.349-3.041-7.349-7.888
		c0-5.132,3.357-8.142,7.603-8.142C386.048,267.621,389.026,270.821,389.026,275.509z M376.862,275.668
		c0,3.357,1.932,5.892,4.656,5.892c2.661,0,4.656-2.503,4.656-5.955c0-2.598-1.299-5.893-4.593-5.893
		C378.287,269.712,376.862,272.753,376.862,275.668z"/>
	<path fill="#FFFFFF" d="M392.546,272.12c0-1.584-0.031-2.883-0.127-4.15h2.471l0.158,2.534h0.063
		c0.761-1.457,2.534-2.883,5.068-2.883c2.123,0,5.417,1.268,5.417,6.526v9.154h-2.787v-8.838c0-2.471-0.919-4.53-3.548-4.53
		c-1.838,0-3.263,1.299-3.738,2.852c-0.127,0.349-0.19,0.823-0.19,1.299v9.218h-2.787V272.12z"/>
	<path fill="#FFFFFF" d="M409.749,280.451c0.823,0.538,2.28,1.108,3.674,1.108c2.027,0,2.979-1.014,2.979-2.281
		c0-1.33-0.792-2.059-2.852-2.818c-2.756-0.982-4.055-2.503-4.055-4.34c0-2.472,1.996-4.499,5.29-4.499
		c1.553,0,2.915,0.444,3.77,0.951l-0.696,2.027c-0.603-0.381-1.711-0.888-3.137-0.888c-1.646,0-2.565,0.95-2.565,2.091
		c0,1.268,0.919,1.838,2.914,2.598c2.661,1.014,4.023,2.344,4.023,4.625c0,2.692-2.091,4.593-5.733,4.593
		c-1.68,0-3.231-0.411-4.309-1.045L409.749,280.451z"/>
</g>
<g>
	<path fill="#FFFFFF" d="M307.738,211.655c-32.433,0-58.746-26.313-58.746-58.746s26.313-58.746,58.746-58.746
		s58.746,26.313,58.746,58.746S340.171,211.655,307.738,211.655z M307.738,103.954c-27.002,0-48.955,21.953-48.955,48.955
		s21.953,48.955,48.955,48.955s48.955-21.953,48.955-48.955S334.74,103.954,307.738,103.954z M288.156,143.118
		c-5.431,0-9.791-4.36-9.791-9.791s4.36-9.791,9.791-9.791s9.791,4.36,9.791,9.791S293.587,143.118,288.156,143.118z
		 M332.598,184.501c-2.6,0.841-5.354-0.612-6.195-3.213c-2.524-8.186-10.097-13.692-18.664-13.692s-16.14,5.507-18.664,13.692
		c-0.841,2.601-3.595,4.054-6.12,3.213c-2.601-0.842-4.054-3.52-3.212-6.119c3.825-12.316,15.069-20.577,27.996-20.577
		c12.928,0,24.172,8.261,27.996,20.577C336.576,180.981,335.123,183.659,332.598,184.501z M327.32,143.118
		c-5.432,0-9.791-4.36-9.791-9.791s4.359-9.791,9.791-9.791s9.791,4.36,9.791,9.791S332.752,143.118,327.32,143.118z"/>
</g>
</svg>
