<?xml version="1.0" encoding="utf-8"?>
<!-- Generator: Adobe Illustrator 16.0.0, SVG Export Plug-In . SVG Version: 6.00 Build 0)  -->
<svg version="1.2" baseProfile="tiny" id="Layer_1" xmlns="http://www.w3.org/2000/svg" xmlns:xlink="http://www.w3.org/1999/xlink"
	 x="0px" y="0px" width="600px" height="337.604px" viewBox="0 0 600 337.604" xml:space="preserve">
<rect x="0.001" fill="#8C7FFF" width="599.998" height="337.604"/>
<g>
	<path fill="#FFFFFF" d="M186.672,276.586l-2.218,6.716h-2.851l7.254-21.351h3.326l7.285,21.351h-2.945l-2.281-6.716H186.672z
		 M193.672,274.433l-2.091-6.146c-0.475-1.395-0.791-2.661-1.108-3.896h-0.063c-0.316,1.267-0.665,2.565-1.077,3.864l-2.09,6.178
		H193.672z"/>
	<path fill="#FFFFFF" d="M202.419,272.12c0-1.584-0.031-2.883-0.127-4.15h2.472l0.158,2.534h0.063
		c0.76-1.457,2.534-2.883,5.068-2.883c2.122,0,5.416,1.268,5.416,6.526v9.154h-2.787v-8.838c0-2.471-0.919-4.53-3.548-4.53
		c-1.837,0-3.263,1.299-3.738,2.852c-0.126,0.349-0.189,0.823-0.189,1.299v9.218h-2.788V272.12z"/>
	<path fill="#FFFFFF" d="M233.877,275.509c0,5.671-3.928,8.142-7.634,8.142c-4.149,0-7.35-3.041-7.35-7.888
		c0-5.132,3.358-8.142,7.603-8.142C230.899,267.621,233.877,270.821,233.877,275.509z M221.713,275.668
		c0,3.357,1.933,5.892,4.657,5.892c2.66,0,4.656-2.503,4.656-5.955c0-2.598-1.299-5.893-4.594-5.893
		C223.139,269.712,221.713,272.753,221.713,275.668z"/>
	<path fill="#FFFFFF" d="M240.755,263.566v4.403h3.991v2.123h-3.991v8.268c0,1.9,0.538,2.978,2.09,2.978
		c0.729,0,1.268-0.095,1.616-0.19l0.126,2.091c-0.538,0.222-1.394,0.38-2.471,0.38c-1.299,0-2.344-0.411-3.009-1.172
		c-0.792-0.823-1.077-2.186-1.077-3.991v-8.362h-2.376v-2.123h2.376v-3.674L240.755,263.566z"/>
	<path fill="#FFFFFF" d="M247.884,260.811h2.787v9.567h0.063c0.443-0.792,1.141-1.489,1.996-1.965
		c0.823-0.475,1.806-0.792,2.851-0.792c2.059,0,5.354,1.268,5.354,6.558v9.123h-2.788v-8.807c0-2.471-0.918-4.562-3.548-4.562
		c-1.806,0-3.23,1.268-3.737,2.788c-0.158,0.38-0.19,0.792-0.19,1.33v9.25h-2.787V260.811z"/>
	<path fill="#FFFFFF" d="M267.02,276.143c0.062,3.77,2.471,5.322,5.258,5.322c1.996,0,3.199-0.349,4.245-0.792l0.475,1.995
		c-0.981,0.443-2.66,0.95-5.1,0.95c-4.72,0-7.539-3.104-7.539-7.729s2.724-8.269,7.19-8.269c5.005,0,6.336,4.403,6.336,7.223
		c0,0.57-0.063,1.014-0.096,1.299H267.02z M275.191,274.147c0.032-1.774-0.729-4.53-3.864-4.53c-2.819,0-4.055,2.598-4.276,4.53
		H275.191z"/>
	<path fill="#FFFFFF" d="M281.34,272.753c0-1.806-0.031-3.357-0.127-4.783h2.439l0.095,3.01h0.127
		c0.697-2.06,2.376-3.358,4.245-3.358c0.316,0,0.538,0.032,0.792,0.096v2.629c-0.285-0.063-0.57-0.095-0.95-0.095
		c-1.965,0-3.358,1.488-3.738,3.579c-0.063,0.38-0.127,0.824-0.127,1.299v8.173h-2.756V272.753z"/>
	<path fill="#FFFFFF" d="M298.132,279.944c1.235,0.76,3.041,1.394,4.941,1.394c2.819,0,4.467-1.489,4.467-3.643
		c0-1.996-1.141-3.137-4.023-4.245c-3.484-1.235-5.639-3.041-5.639-6.051c0-3.326,2.756-5.797,6.906-5.797
		c2.186,0,3.77,0.507,4.72,1.046l-0.761,2.249c-0.696-0.38-2.122-1.014-4.055-1.014c-2.914,0-4.022,1.742-4.022,3.199
		c0,1.996,1.299,2.978,4.244,4.118c3.611,1.394,5.449,3.136,5.449,6.272c0,3.294-2.439,6.145-7.477,6.145
		c-2.059,0-4.308-0.602-5.448-1.361L298.132,279.944z"/>
	<path fill="#FFFFFF" d="M328.101,275.509c0,5.671-3.928,8.142-7.634,8.142c-4.149,0-7.35-3.041-7.35-7.888
		c0-5.132,3.358-8.142,7.603-8.142C325.123,267.621,328.101,270.821,328.101,275.509z M315.937,275.668
		c0,3.357,1.933,5.892,4.656,5.892c2.661,0,4.657-2.503,4.657-5.955c0-2.598-1.299-5.893-4.594-5.893
		C317.362,269.712,315.937,272.753,315.937,275.668z"/>
	<path fill="#FFFFFF" d="M331.62,260.811h2.787v22.491h-2.787V260.811z"/>
	<path fill="#FFFFFF" d="M351.926,279.12c0,1.584,0.032,2.978,0.127,4.182h-2.471l-0.158-2.503h-0.063
		c-0.729,1.235-2.345,2.852-5.068,2.852c-2.408,0-5.29-1.331-5.29-6.716v-8.965h2.787v8.49c0,2.914,0.887,4.878,3.421,4.878
		c1.869,0,3.168-1.299,3.675-2.534c0.158-0.412,0.254-0.919,0.254-1.426v-9.408h2.787V279.12z"/>
	<path fill="#FFFFFF" d="M359.911,263.566v4.403h3.991v2.123h-3.991v8.268c0,1.9,0.539,2.978,2.091,2.978
		c0.729,0,1.268-0.095,1.616-0.19l0.126,2.091c-0.538,0.222-1.394,0.38-2.471,0.38c-1.299,0-2.344-0.411-3.009-1.172
		c-0.792-0.823-1.077-2.186-1.077-3.991v-8.362h-2.376v-2.123h2.376v-3.674L359.911,263.566z"/>
	<path fill="#FFFFFF" d="M370.146,263.662c0.031,0.95-0.665,1.71-1.774,1.71c-0.981,0-1.679-0.76-1.679-1.71
		c0-0.982,0.729-1.742,1.742-1.742C369.48,261.92,370.146,262.68,370.146,263.662z M367.041,283.302V267.97h2.787v15.332H367.041z"
		/>
	<path fill="#FFFFFF" d="M388.329,275.509c0,5.671-3.929,8.142-7.635,8.142c-4.149,0-7.349-3.041-7.349-7.888
		c0-5.132,3.357-8.142,7.603-8.142C385.351,267.621,388.329,270.821,388.329,275.509z M376.165,275.668
		c0,3.357,1.932,5.892,4.656,5.892c2.661,0,4.656-2.503,4.656-5.955c0-2.598-1.299-5.893-4.593-5.893
		C377.59,269.712,376.165,272.753,376.165,275.668z"/>
	<path fill="#FFFFFF" d="M391.848,272.12c0-1.584-0.032-2.883-0.127-4.15h2.471l0.159,2.534h0.062
		c0.761-1.457,2.534-2.883,5.068-2.883c2.123,0,5.417,1.268,5.417,6.526v9.154h-2.787v-8.838c0-2.471-0.919-4.53-3.548-4.53
		c-1.838,0-3.263,1.299-3.738,2.852c-0.127,0.349-0.19,0.823-0.19,1.299v9.218h-2.787V272.12z"/>
	<path fill="#FFFFFF" d="M409.052,280.451c0.823,0.538,2.28,1.108,3.674,1.108c2.027,0,2.979-1.014,2.979-2.281
		c0-1.33-0.792-2.059-2.852-2.818c-2.756-0.982-4.055-2.503-4.055-4.34c0-2.472,1.996-4.499,5.29-4.499
		c1.553,0,2.915,0.444,3.77,0.951l-0.696,2.027c-0.603-0.381-1.711-0.888-3.137-0.888c-1.646,0-2.565,0.95-2.565,2.091
		c0,1.268,0.919,1.838,2.914,2.598c2.661,1.014,4.023,2.344,4.023,4.625c0,2.692-2.091,4.593-5.733,4.593
		c-1.68,0-3.231-0.411-4.309-1.045L409.052,280.451z"/>
</g>
<g>
	<path fill="#FFFFFF" d="M373.619,188.802c1.44,1.04,2.158,2.802,2.001,4.482c-0.239,1.763-1.283,3.285-2.8,4.085l-10.248,5.124
		c-0.725,0.403-1.524,0.561-2.323,0.561c-0.881,0-1.762-0.239-2.479-0.642l-55.243-30.983l-8.807,5.287
		c-0.321,0.157-0.642,0.315-0.963,0.396c0.724,2.48,1.04,5.124,0.8,7.769c-0.718,8.246-6.245,16.089-15.051,21.697
		c-6.804,4.318-14.648,6.724-22.176,6.724c-7.207,0-13.288-2.159-17.77-6.245c-4.563-4.242-6.886-10.33-6.326-16.573
		c0.718-8.165,6.245-16.09,14.969-21.699c6.805-4.318,14.73-6.723,22.259-6.723c4.481,0,8.566,0.881,12.086,2.48
		c0.484-0.718,1.044-1.278,1.762-1.763l9.77-5.841l-9.77-5.842c-0.717-0.484-1.277-1.044-1.762-1.763
		c-3.52,1.599-7.605,2.48-12.086,2.48c-7.529,0-15.454-2.404-22.259-6.723c-8.724-5.608-14.251-13.533-14.969-21.698
		c-0.56-6.245,1.763-12.331,6.326-16.493c4.482-4.166,10.563-6.326,17.77-6.326c7.528,0,15.372,2.404,22.176,6.723
		c8.807,5.527,14.333,13.452,15.051,21.698c0.239,2.644-0.076,5.288-0.8,7.768c0.322,0.082,0.643,0.239,0.963,0.397l8.807,5.287
		l55.243-30.983c0.718-0.402,1.599-0.642,2.479-0.642c0.799,0,1.599,0.158,2.323,0.56l10.248,5.124c1.517,0.8,2.561,2.323,2.8,4.085
		c0.157,1.681-0.561,3.443-2.001,4.482l-40.588,31.864L373.619,188.802z M271.701,118.106c-4.885-3.123-10.569-4.721-15.372-4.721
		c-3.682,0-6.962,0.963-9.046,2.882c-4.884,4.482-1.844,12.571,6.805,18.016c4.885,3.122,10.488,4.721,15.373,4.721
		c3.682,0,6.961-0.963,9.045-2.883C283.39,131.64,280.35,123.551,271.701,118.106z M278.505,177.754
		c-2.083-1.919-5.363-2.882-9.045-2.882c-4.885,0-10.488,1.599-15.373,4.721c-8.649,5.445-11.689,13.534-6.805,18.016
		c2.083,1.921,5.364,2.883,9.046,2.883c4.803,0,10.487-1.599,15.372-4.721C280.35,190.325,283.39,182.236,278.505,177.754z
		 M311.572,167.186l58.924-46.115l-10.247-5.124l-61.487,34.508v9.046l-12.81,7.686l0.718,0.642c0.163,0.239,0.321,0.321,0.56,0.479
		c0.642,0.643,1.126,1.285,1.763,1.921l2.083,2.082l12.81-7.686L311.572,167.186z M293.638,151.336v-0.881
		c0-1.844,1.039-3.525,2.644-4.482l1.12-0.642l-6.326-3.764l-2.083,2.083c-0.636,0.636-1.121,1.277-1.763,1.838
		c-0.239,0.239-0.397,0.321-0.56,0.484l-0.718,0.718L293.638,151.336z M314.133,156.938c0,2.801-2.321,5.124-5.124,5.124
		c-2.8,0-5.123-2.322-5.123-5.124c0-2.802,2.323-5.124,5.123-5.124C311.812,151.814,314.133,154.137,314.133,156.938z
		 M370.496,192.806l-41.632-32.664l-14.17,11.047c-0.239,0.321-0.643,0.402-1.04,0.561l46.595,26.18L370.496,192.806z"/>
</g>
</svg>
